<svg width="434" height="43" fill="none" xmlns="http://www.w3.org/2000/svg"><path d="M32.158 42h2.04l-15.6-40.8h-2.04L.958 42h2.04l5.34-14.1h18.42l5.4 14.1ZM17.578 3.6l8.58 22.62H8.938l8.64-22.62ZM88.645 42h1.8V1.2h-1.8v37.86L59.725 1.2h-2.4v.3l2.76 3.84V42h1.8V7.08L88.645 42Zm38.754 0h1.8V2.82h11.76V1.2h-25.44v1.62h11.88V42Zm62.763 0h2.04l-15.6-40.8h-2.04l-15.6 40.8h2.04l5.34-14.1h18.42l5.4 14.1Zm-14.58-38.4 8.58 22.62h-17.22l8.64-22.62ZM217.909 42h1.8V23.1h6.36c5.64 0 12.42 7.44 14.7 18.9h1.8c-1.98-10.62-7.32-17.28-11.94-19.2 5.4-1.14 9.42-4.62 9.42-10.62 0-6.72-4.98-10.98-12.18-10.98h-9.96V42Zm20.22-29.76c0 5.94-4.44 9.24-10.26 9.24h-8.16V2.82h8.16c5.82 0 10.26 3.48 10.26 9.42ZM298.9 36.66c-3.24 2.64-7.5 4.2-12.12 4.2-10.92 0-19.08-8.4-19.08-19.26 0-10.86 8.22-19.26 19.08-19.26 4.62 0 8.88 1.56 12.12 4.2V4.26C295.54 1.98 291.34.6 286.78.6c-11.94 0-21 9.06-21 21s9.06 21 21 21c4.56 0 8.76-1.38 12.12-3.66v-2.28ZM332.758 42h1.8V2.82h11.76V1.2h-25.44v1.62h11.88V42Zm38.643 0h1.8V1.2h-1.8V42Zm62.183-5.34c-3.24 2.64-7.5 4.2-12.12 4.2-10.92 0-19.08-8.4-19.08-19.26 0-10.86 8.22-19.26 19.08-19.26 4.62 0 8.88 1.56 12.12 4.2V4.26c-3.36-2.28-7.56-3.66-12.12-3.66-11.94 0-21 9.06-21 21s9.06 21 21 21c4.56 0 8.76-1.38 12.12-3.66v-2.28Z" fill="#fff"/></svg>