<svg width="638" height="638" fill="none" xmlns="http://www.w3.org/2000/svg">
  <path
    d="M617.5 319c0 164.857-133.643 298.5-298.5 298.5S20.5 483.857 20.5 319 154.143 20.5 319 20.5 617.5 154.143 617.5 319Z"
    fill="#0B1D32" stroke="#27A2F8" />
  <path
    d="m326.092 24.138-.223 13.092m5.363-12.912-.457 13.082m5.586-12.816-.679 13.071m5.809-12.721-.913 13.06m6.042-12.614-1.147 13.05m6.254-12.508-1.37 13.018m6.468-12.402-1.593 12.997m6.69-12.275-1.826 12.965m6.901-12.169-2.05 12.933m7.115-12.041-2.283 12.89m7.329-11.913-2.506 12.859m7.529-11.787-2.719 12.806m7.73-11.659-2.953 12.763m7.943-11.52-3.175 12.71m8.136-11.383-3.388 12.646m8.325-11.223-3.6 12.582m8.516-11.085-3.823 12.519m8.72-10.937-4.046 12.455m8.909-10.777-4.268 12.38m9.089-10.629-4.47 12.307m9.269-10.47-4.683 12.233m9.451-10.3-4.906 12.137m9.643-10.13-5.118 12.052m9.812-9.971-5.32 11.967m9.982-9.79-5.533 11.86m10.151-9.61-5.735 11.766m10.311-9.439-5.936 11.67m10.483-9.26-6.149 11.563m10.641-9.068-6.34 11.447m10.798-8.878-6.552 11.33m10.96-8.685L465.543 78.6m11.096-8.506L469.705 81.2m11.247-8.303-7.126 10.98m11.394-8.112-7.327 10.852m11.533-7.901-7.508 10.724m11.67-7.709-7.699 10.587m11.809-7.497-7.88 10.46m11.926-7.295-8.06 10.321m12.053-7.093-8.241 10.183m12.18-6.88-8.41 10.034m12.298-6.658-8.591 9.875m12.412-6.435-8.772 9.726m12.533-6.233-8.931 9.578m12.626-5.999-9.101 9.419m12.732-5.788-9.249 9.259m12.827-5.564-9.419 9.09m12.924-5.331-9.578 8.93m13.018-5.117-9.727 8.76m13.105-4.884-9.887 8.59m13.19-4.651-10.035 8.421m13.272-4.429-10.173 8.24m13.338-4.194-10.322 8.07m13.412-3.961-10.449 7.878m13.477-3.726-10.598 7.698m13.549-3.482-10.725 7.507m13.604-3.249-10.864 7.316m13.656-3.006-10.98 7.125m13.709-2.771-11.108 6.944m13.762-2.537-11.224 6.743m13.794-2.295-11.341 6.552m13.837-2.06-11.458 6.35m13.868-1.805-11.564 6.138m13.901-1.562-11.67 5.947m13.92-1.327-11.766 5.733m13.944-1.083-11.872 5.532m13.963-.839-11.957 5.331m13.965-.594-12.053 5.118m13.986-.351-12.138 4.906m13.974-.118-12.222 4.694m13.985.138-12.307 4.481m13.985.383-12.382 4.258m13.974.625-12.456 4.046m13.953.871-12.52 3.823m13.943 1.115-12.583 3.61m13.911 1.359-12.648 3.387m13.901 1.593-12.711 3.175m13.87 1.837-12.765 2.941m13.837 2.081-12.817 2.729m13.794 2.315-12.849 2.506m13.741 2.559-12.891 2.272m13.697 2.804-12.934 2.049m13.656 3.037-12.966 1.826m13.593 3.281-12.997 1.593m13.539 3.515-13.03 1.369m13.476 3.749-13.04 1.147m13.401 3.982-13.061.913m13.336 4.215-13.082.69m13.263 4.449-13.093.457m13.179 9.822h-13.094m13.008 5.14-13.093-.223m12.923 5.362-13.093-.457m12.818 5.585-13.072-.679m12.721 5.808-13.061-.913m12.615 6.031-13.051-1.136m12.51 6.254-13.019-1.37m12.402 6.467-12.998-1.593m12.276 6.69-12.966-1.827m12.171 6.902-12.934-2.049m12.042 7.104-12.892-2.273m11.914 7.327-12.859-2.506m11.787 7.528-12.807-2.718m11.659 7.73-12.764-2.951m11.522 7.931-12.712-3.164m11.384 8.133-12.647-3.387m11.224 8.325-12.584-3.61m11.087 8.526-12.52-3.822m10.938 8.718-12.456-4.046m10.779 8.898-12.382-4.258m10.629 9.09-12.307-4.471m10.47 9.27-12.222-4.694m10.29 9.462-12.138-4.906m10.141 9.642-12.053-5.118m9.962 9.81-11.968-5.33m9.789 9.992-11.861-5.532m9.612 10.151-11.766-5.744m9.44 10.32-11.671-5.946m9.26 10.492-11.564-6.148m9.068 10.639-11.447-6.35m8.877 10.799-11.33-6.541m8.687 10.948-11.225-6.743m8.506 11.107-11.107-6.934m8.304 11.245-10.98-7.125m8.113 11.383-10.853-7.316m7.912 11.531-10.736-7.507m7.708 11.67-10.587-7.699m7.497 11.797-10.46-7.879m7.295 11.936-10.311-8.06m7.084 12.052-10.183-8.24m6.88 12.18-10.035-8.41m6.657 12.296-9.875-8.591m6.446 12.403-9.737-8.76m6.232 12.529-9.578-8.93m6 12.626-9.408-9.1M525 528.478l-9.26-9.259m5.565 12.837-9.09-9.418m5.329 12.922-8.931-9.578m5.12 13.019-8.76-9.727m4.883 13.103-8.59-9.885m4.651 13.187-8.421-10.034m4.428 13.273-8.24-10.183m4.194 13.347-8.06-10.321m3.95 13.411-7.879-10.459m3.728 13.486-7.699-10.597m3.482 13.548-7.507-10.724m3.25 13.591-7.317-10.851m3.005 13.655-7.126-10.98m2.772 13.709-6.934-11.107m2.526 13.751-6.743-11.224m2.295 13.804-6.541-11.34m2.05 13.825-6.351-11.447m1.804 13.868-6.138-11.564m1.561 13.9-5.936-11.67m1.319 13.921-5.735-11.766m1.084 13.943-5.533-11.872m.839 13.963-5.331-11.967m.593 13.974-5.118-12.052m.35 13.984-4.895-12.147m.107 13.985-4.693-12.222m-.138 13.984-4.481-12.306m-.383 13.984-4.258-12.381m-.628 13.974-4.046-12.455m-.87 13.952-3.823-12.519m-1.114 13.942-3.611-12.583m-1.36 13.91-3.388-12.646m-1.592 13.899-3.176-12.71m-1.835 13.868-2.942-12.764m-2.081 13.826-2.729-12.806m-2.317 13.793-2.506-12.848m-2.559 13.74-2.273-12.891m-2.802 13.698-2.049-12.933m-3.037 13.655-1.827-12.965m-3.282 13.591-1.593-12.996m-3.515 13.538-1.369-13.029m-3.748 13.475-1.147-13.04m-3.983 13.401-.913-13.061m-4.216 13.326-.691-13.071m-4.449 13.262-.457-13.092m-4.501 13.177-.595-33.978m-4.726 33.978v-13.092m-5.139 13.007.223-13.092m-5.363 12.912.456-13.082m-5.585 12.816.679-13.071m-5.808 12.721.913-13.061m-6.032 12.615 1.136-13.05m-6.254 12.509 1.37-13.018m-6.467 12.391 1.593-12.986m-6.691 12.275 1.827-12.965m-6.903 12.168 2.049-12.933m-7.104 12.041 2.273-12.89m-7.327 11.914 2.506-12.859m-7.528 11.786 2.719-12.806m-7.733 11.659 2.953-12.763m-7.933 11.521 3.164-12.71m-8.133 11.383 3.388-12.647m-8.325 11.223 3.61-12.582m-8.528 11.086 3.823-12.519m-8.718 10.936 4.046-12.455m-8.899 10.778 4.258-12.381m-9.09 10.629 4.47-12.307m-9.269 10.469 4.693-12.232m-9.461 10.3 4.906-12.137m-9.642 10.13 5.118-12.052m-9.811 9.971 5.33-11.967m-9.993 9.79 5.533-11.861m-10.152 9.61 5.745-11.765m-10.323 9.44 5.947-11.67m-10.492 9.259 6.149-11.563m-10.641 9.068 6.35-11.446m-10.799 8.877 6.541-11.341m-10.947 8.697 6.743-11.224m-11.109 8.505 6.935-11.107m-11.245 8.304 7.136-10.979m-11.394 8.112 7.317-10.852m-11.534 7.9 7.508-10.724m-11.67 7.708 7.699-10.597m-11.799 7.507 7.88-10.459m-11.936 7.295 8.06-10.321m-12.052 7.093 8.24-10.183m-12.18 6.881 8.411-10.034m-12.297 6.657 8.59-9.875m-12.403 6.435 8.761-9.727m-12.521 6.223 8.92-9.567m-12.625 5.999 9.101-9.418m-12.734 5.787 9.26-9.259m-12.838 5.564 9.419-9.09m-12.923 5.331 9.579-8.93m-13.02 5.118 9.727-8.761m-13.104 4.885 9.886-8.59m-13.187 4.65 10.035-8.42m-13.275 4.428 10.184-8.24m-13.348 4.184 10.322-8.06m-13.412 3.961 10.46-7.879m-13.487 3.728 10.598-7.699m-13.55 3.483 10.726-7.507m-13.593 3.249 10.853-7.316m-13.657 3.005 10.98-7.125m-13.709 2.771 11.108-6.944m-13.752 2.538 11.224-6.743m-13.805 2.294 11.342-6.552m-13.826 2.06 11.448-6.349m-13.87 1.804 11.564-6.148m-13.9 1.572 11.67-5.946M52.734 445.4l11.766-5.734m-13.941 1.083 11.872-5.543m-13.964.839 11.968-5.319m-13.976.594 12.053-5.118m-13.985.35 12.149-4.906m-13.986.107 12.222-4.683m-13.984-.138 12.307-4.481m-13.985-.382 12.382-4.258m-13.966-.627 12.446-4.045m-13.954-.871 12.52-3.833m-13.942-1.105 12.595-3.61m-13.923-1.359 12.648-3.387m-13.89-1.593 12.7-3.174m-13.868-1.838 12.764-2.941m-13.826-2.081 12.806-2.729m-13.792-2.315 12.848-2.506m-13.741-2.559 12.891-2.272m-13.698-2.803 12.934-2.05m-13.657-3.037 12.966-1.826M25.9 351.969l12.998-1.593m-13.538-3.515 13.029-1.369m-13.475-3.749 13.04-1.146m-13.401-3.982 13.061-.913m-13.327-4.226 13.072-.68m-13.254-4.449 13.083-.456m-13.178-4.683 13.093-.234m-13.007-10.045 13.093.223m-12.914-5.362 13.083.457m-12.817-5.586 13.072.68m-12.72-5.808 13.061.913m-12.616-6.031 13.05 1.136m-12.509-6.255 13.019 1.37M26.506 280.2l12.987 1.592m-12.276-6.689 12.966 1.826m-12.169-6.902 12.934 2.05m-12.042-7.104 12.892 2.272m-11.915-7.327 12.86 2.506m-11.788-7.528 12.807 2.718m-11.66-7.73 12.764 2.952m-11.52-7.942 12.71 3.174m-11.384-8.133 12.658 3.387m-11.234-8.325 12.583 3.6m-11.087-8.516 12.52 3.823m-10.938-8.718 12.456 4.046m-10.777-8.899 12.382 4.258m-10.63-9.089 12.308 4.47m-10.46-9.269 12.223 4.693m-10.301-9.461 12.138 4.906m-10.133-9.642 12.054 5.118m-9.971-9.811 11.968 5.32m-9.791-9.982 11.862 5.532m-9.612-10.151 11.767 5.745m-9.44-10.321 11.67 5.936m-9.26-10.481 11.564 6.148m-9.068-10.639 11.447 6.35m-8.877-10.81 11.342 6.551m-8.699-10.958 11.224 6.753m-8.505-11.106 11.107 6.933m-8.302-11.244 10.98 7.124m-8.113-11.393 10.852 7.327m-7.901-11.532 10.725 7.508m-7.71-11.67 10.598 7.698m-7.508-11.808 10.46 7.89m-7.293-11.935 10.321 8.059m-7.095-12.052 10.184 8.24m-6.882-12.179 10.036 8.41m-6.658-12.296 9.875 8.59m-6.434-12.413 9.727 8.771m-6.223-12.53 9.568 8.93m-6-12.625 9.419 9.1M112 108.564l9.26 9.26m-5.565-12.838 9.09 9.419m-5.33-12.923 8.931 9.578m-5.118-13.018 8.76 9.726m-4.874-13.103 8.581 9.886m-4.651-13.188 8.421 10.034m-4.429-13.273 8.241 10.183m-4.184-13.347 8.06 10.321m-3.961-13.411 7.88 10.449m-3.729-13.475 7.699 10.597M151.6 75.892l7.507 10.725m-3.25-13.603 7.328 10.863m-3.017-13.655 7.125 10.98m-2.77-13.709 6.945 11.107m-2.538-13.751 6.743 11.213m-2.294-13.793 6.552 11.34m-2.06-13.825 6.35 11.446m-1.805-13.867 6.148 11.563m-1.572-13.899 5.947 11.67m-1.328-13.921 5.735 11.765M196.264 50.6l5.543 11.87m-.84-13.963 5.32 11.967m-.594-13.974 5.119 12.052m-.351-13.984 4.906 12.147m-.105-13.985 4.683 12.222m.137-13.984 4.481 12.306m.382-13.984 4.259 12.382m.626-13.974 4.046 12.455m.87-13.953 3.834 12.52m1.106-13.943 3.61 12.583m1.358-13.91 3.388 12.647m1.593-13.9 3.175 12.71m1.836-13.867 2.942 12.763m2.082-13.835 2.729 12.816m2.326-13.794 2.495 12.849m2.559-13.74 2.273 12.89m2.803-13.697 2.05 12.933m3.036-13.655 1.827 12.964m3.281-13.591 1.593 12.997m3.516-13.539 1.37 13.03m3.747-13.475 1.147 13.039m3.982-13.4.914 13.06m4.227-13.337.679 13.082m4.45-13.262.456 13.092m4.682-13.177.234 13.092M320.953 24v33.979"
    opacity=".2" stroke="#27A2F8" stroke-miterlimit="10" />
</svg>
