<?xml version="1.0" encoding="UTF-8"?>
<svg fill="none" viewBox="0 0 1280 800" xmlns="http://www.w3.org/2000/svg">
<g clip-path="url(#a)" stroke="#27A2F8" stroke-dasharray="3 5" stroke-linecap="round" stroke-linejoin="round" stroke-miterlimit="10" stroke-opacity=".4">
<path d="m343.3 912.43c-1.418-3.014-2.739-6.089-4.272-9.041-5.859-11.245-14.034-15.132-26.605-12.832-3.321 0.608-6.739 1.031-10.105 1.049-7.708 0.027-13.328-3.551-17.636-10.011-7.127-10.672-11.188-22.613-14.739-34.687-4.66-15.818-9.769-31.558-12.262-47.914-1.102-7.209-2.441-14.356-0.212-21.864 4.273-14.436 15.056-20.481 28.376-23.319 15.989-3.41 31.247-8.522 45.237-17.105 0.678-0.414 1.506-0.599 2.114-1.093 10.228-8.266 8.651-18.718-2.141-26.57-8.704-6.336-18.835-9.853-28.684-13.968-9.673-4.036-20.103-6.275-28.816-12.646-12.086-8.839-18.544-21.01-21.75-35.207-1.665-7.376-1.075-14.849-0.661-22.366 0.863-15.564-5.295-30.933-27.054-36.238-8.598-2.098-17.39-2.97-26.112-4.107-13.205-1.727-23.909-8.213-34.048-16.109-19.681-15.334-33.195-35.507-45.352-56.921-11.937-21.027-23.151-42.381-32.912-64.491-4.8364-10.963-9.4438-22.129-12.51-33.621-3.5942-13.501-0.8721-27.011 4.5193-39.868 5.3474-12.761 12.994-24.015 21.768-34.669 10.298-12.497 19.037-26.007 22.931-42.028 4.308-17.74 0.335-33.955-9.549-48.99-11.867-18.039-28.279-31.699-44.242-45.737-21.055-18.525-41.572-37.586-60.01-58.719-6.6071-7.57-12.783-15.695-16.051-25.486-1.9205-5.737 1.0307-11.333 6.9155-12.153 8.8271-1.234 17.734-1.895 26.605-2.741 11.954-1.145 23.839-2.74 35.67-4.8026 9.9459-1.7361 19.821-3.7454 29.292-7.4291 17.364-6.7505 21.83-19.591 18.43-35.665-5.101-24.05-15.1-46.496-25.398-68.721-1.4976-3.2342-2.5282-6.7239-4.757-9.6057"/>
<path d="m914.53 905.5c4.59-11.281 6.572-23.169 7.955-35.154 2.793-24.2-0.229-47.65-7.752-70.898-5.947-18.366-13.452-36.035-21.028-53.696-11.488-26.79-22.773-53.695-29.521-82.098-3.638-15.308-4.387-31.391 9e-3 -46.743 2.951-10.302 7.928-20.119 20.508-22.49 9.285-1.745 17.258 1.225 24.455 6.504 10.845 7.949 22.491 14.329 35.212 18.471 8.73 2.838 17.787 4.609 27.116 4.389 24.622-0.573 37.094-21.362 35.304-41.049-1.79-19.635-11.466-35.163-23.05-50.056-8.29-10.664-18.967-19.027-27.759-29.223-10.792-12.514-17.742-26.085-18.879-43.173-1.11-16.656-8.58-31.602-18.914-44.707-20.165-25.592-46.347-42.724-76.528-54.559-12.924-5.067-25.213-11.906-36.26-20.595-0.978-0.767-1.806-1.736-2.669-2.653-4.863-5.129-4.185-8.204 2.096-12.294 8.008-5.208 17.02-8.231 25.601-12.161 20.561-9.438 42.162-16.162 63.323-24.023 10.448-3.878 8.651-12.276 3.162-16.982-9.893-8.487-20.667-15.863-30.956-23.856-12.369-9.624-24.429-19.608-36.648-29.399-19.663-15.757-38.339-32.801-61.129-44.372-12.378-6.283-25.53-8.645-38.938-9.844-11.655-1.04-23.425-1.313-35.115-1.013-6.044 0.158-11.946 0.291-17.549-1.86-8.334-3.208-13.179-10.469-17.469-17.581-11.593-19.194-19.822-39.833-22.341-62.253-1.357-12.091 0.529-24.252 7.453-34.502 8.827-13.069 22.808-15.264 37.106-13.801 25.089 2.5557 49.456 0.326 72.335-10.434 16.086-7.5613 26.639-20.349 31.088-38.141 3.348-13.378 3.894-26.923 4.625-40.512 0.062-1.0487-0.326-2.1327-0.502-3.1902"/>
<path d="m514.72 911.36c1.841-23.988 6.863-47.738 6.281-71.894-0.396-16.523-4.123-31.954-15.188-45.385-16.235-19.714-26.613-42.618-34.348-66.941-7.558-23.776-17.108-46.725-30.023-68.324-12.994-21.724-26.19-43.244-41.722-63.249-15.61-20.102-35.44-35.207-56.909-48.54-31.362-19.485-63.667-37.542-92.685-60.64-10.448-8.319-20.658-17.008-29.16-27.266-14.623-17.643-31.943-32.766-46.408-50.515-4.828-5.922-9.576-12.011-11.144-19.705-2.652-12.998 2.088-22.833 13.197-30.439 7.919-5.428 17.055-8.504 24.684-14.655 15.364-12.391 24.279-28.439 29.08-47.051 4.246-16.462 2.66-32.66-3.577-48.478-0.854-2.159-1.762-4.645-2.942-6.205-4.211-5.569-4.528-11.297-1.832-17.149 2.915-6.327 7.118-11.888 14.297-13.836 9.585-2.6 19.364-3.384 29.266-2.194 18.253 2.203 36.453 5.42 54.839 5.675 15.575 0.212 31.001-1.621 44.752-10.416 11.188-7.156 17.866-17.458 21.17-29.902 4.387-16.488 7.875-33.224 10.633-50.056 2.854-17.387-3.295-32.272-22.218-38.441-11.223-3.6572-22.306-7.6758-34.11-8.9096-10.51-1.1015-19.751 2.1768-27.662 9.0507-7.638 6.6359-12.801 15.158-17.619 23.926-1.463 2.661-3.41 5.005-5.815 6.953-8.016 6.477-16.553 4.036-20.79-5.86-3.868-9.033-3.806-18.789-5.233-28.245-1.921-12.761-10.739-28.28-28.807-30.474-3.207-0.3878-6.052 0.3965-9.074 0.5816-8.651 0.5552-17.108-0.0529-22.314-8.4778-3.225-5.2083-4.987-10.69-2.802-17.052 1.656-4.8205 2.59-9.9231 3.938-14.849 3.03-11.033 10.809-18.436 20.103-24.552 14.104-9.2885 29.935-13.325 46.321-16.021 6.757-1.1104 13.566-1.7449 20.288-3.481 8.783-2.2649 15.866-6.3011 20.72-14.03"/>
<path d="m1051.9 904.44c-13.5-15.008-26.32-30.544-36.74-47.923-10.87-18.119-18.592-37.401-20.09-58.595-1.048-14.823 1.119-29.558 3.568-44.196 3.052-18.242 3.872-36.484 0.67-54.868-1.401-8.046-1.912-16.303-2.115-24.481-0.132-5.349 3.837-8.134 8.317-10.76 16.91-9.932 35.42-16.489 52.73-25.522 16.05-8.381 29.11-19.89 36.29-37.189 7.12-17.167 6.35-34.37 1-51.678-9.18-29.637-26.9-54.101-46.82-77.243-10.83-12.584-21.79-25.01-34.09-36.202-14.722-13.351-24.968-24.746-35.178-36.176-2.572-2.891-3.876-6.125-2.511-9.58 1.516-3.833 6.255-5.137 11.602-4.335 7.286 1.084 14.267 3.181 21.307 5.287 21.68 6.513 43.77 10.514 66.52 9.086 15.17-0.952 19.53-11.377 16.5-22.86-3.58-13.616-12.38-23.891-22.43-32.924-17.06-15.325-36.72-27.231-55.34-40.494-23.482-16.727-23.817-16.392-72.322-50.329-48.505-33.938-72.529-45.218-91.002-59.53-10.863-8.416-20.835-17.96-31.997-26.024-13.593-9.817-27.67-18.788-44.197-22.851-9.955-2.45-20.147-2.221-29.75 1.154-11.443 4.028-22.843 3.49-34.093 0.785-23.644-5.667-35.484-22.499-40.47-45.139-2.168-9.8346-2.37-19.502 2.607-28.773 5.339-9.9319 15.39-14.7 27.178-12.223 10.086 2.1238 20.129 1.4276 30.366 0.7755 13.945-0.8901 27.318-5.129 41.008-6.257 15.364-1.2602 30.966-1.5422 45.871 5.7635 12.986 6.3627 27.301 5.6401 41.414 2.9434 11.118-2.1238 20.368-7.6582 29.362-14.294 9.999-7.3851 21.83-11.016 34.005-12.805 17.161-2.5116 34.586-2.8641 51.632-6.4509 18.527-3.8952 36.438-9.3679 52.108-20.357 6.11-4.2829 12.4-8.6451 12.94-17.484 0.34-5.5256-0.98-10.029-4.9-13.853-5.54-5.4198-10.5-10.998-13.52-18.551-3.75-9.3591-5.19-18.533-2.99-28.306"/>
<path d="m1026.3 511.4c-4.15-9.694-10.39-18.057-17.64-25.486-13.788-14.136-24.941-30.025-32.826-48.056-4.008-9.174-8.378-18.004-15.046-25.486-9.286-10.434-20.28-18.868-32.49-25.504-12.554-6.829-23.477-15.554-33.564-25.574-3.921-3.895-8.51-7.05-11.691-11.747-2.775-4.098-2.915-7.72 0.608-11.192 5.621-5.526 12.915-7.923 20.209-10.117 16.245-4.9 31.662-1.26 46.849 4.75 18.8 7.438 35.062 19.167 51.631 30.368 6.85 4.627 13.79 8.672 22.34 9.765 5.38 0.687 10.13-0.203 14.34-2.935 6.12-3.992 6.16-12.276 0.6-18.542-9.05-10.17-19.59-18.568-30.87-26.103-17.94-11.976-37.003-22.243-54.261-35.207-15.866-11.923-31.124-24.64-46.955-36.616-13.787-10.426-27.97-20.331-42.013-30.413-11.505-8.248-22.429-17.158-32.489-27.151-13.012-12.937-25.328-26.641-40.445-37.304-9.109-6.425-18.658-11.792-30.331-10.038-7.867 1.181-15.61 3.225-23.442 4.688-13.038 2.441-26.147 4.054-39.387 1.613-16.351-3.014-26.297-13.342-32.525-28.201-6.66-15.88-8.704-32.598-9.462-49.553-0.22-4.9439-0.942-9.8085 0.282-14.955 2.608-10.972 8.739-16.524 19.875-17.052 10.8-0.5111 21.319 1.6392 31.934 2.776 17.17 1.8331 34.084 2.0885 50.047-5.9222 4.414-2.2119 7.999-5.7281 12.747-7.5347 6.599-2.5028 13.523-2.0534 20.28-3.014 6.105-0.8725 11.981-2.2561 17.557-4.8823"/>
<path d="m621.73 910.83c7.568-16.594 13.003-33.893 17.055-51.651 3.868-16.938-0.555-32.113-9.602-46.337-9.435-14.822-21.777-27.169-34.71-38.758-16.931-15.193-34.295-29.98-49.271-47.103-17.205-19.67-33.609-40.036-44.427-64.28-4.14-9.28-5.162-19.053-6.853-28.8-2.309-13.245-4.335-26.535-8.414-39.436-3.99-12.629-13.011-19.952-24.552-25.02-12.65-5.56-25.398-10.821-37.361-17.942-8.624-5.138-16.095-11.668-23.733-17.89-18.438-15.025-36.982-29.945-54.487-46.117-23.433-21.661-46.435-43.693-64.318-70.386-5.761-8.601-7.902-18.242-7.655-28.73 0.22-9.676 0.995-19.132 4.431-28.218 5.629-14.876 14.033-28.2 24.05-40.397 7.549-9.183 11.399-19.573 13.831-30.959 2.378-11.157 5.779-22.137 10.668-32.448 5.162-10.901 14.21-16.453 26.499-17.176 19.073-1.128 36.172-8.478 51.562-19.212 23.733-16.55 42.682-37.586 55.421-63.803 9.135-18.807 14.342-38.714 14.844-59.636 0.352-14.655-4.546-27.451-14.712-38.432-8.58-9.2621-17.02-18.63-23.75-29.593-6.282-10.24-1.163-20.084 9.267-22.534 12.994-3.0492 26.27-4.2212 39.405-6.3451 24.825-4.0098 49.721-7.6053 73.991-14.435 8.149-2.2913 16.078-5.2524 23.434-9.5529"/>
<path d="m1172.2 889.53c-5.1-7.737-11.98-13.941-18.17-20.709-10.93-11.942-22.44-23.354-33.41-35.277-5.44-5.914-10.01-12.444-9.71-21.248 0.29-8.372 5.88-12.567 13.91-10.152 4.04 1.216 7.65 3.234 11.14 5.42 6.1 3.807 12.86 5.472 19.74 6.83 3.34 0.652 8.56-2.345 10.08-5.834 6.45-14.744 11.76-29.902 16.53-45.253 2.86-9.227 5.64-18.472 8.52-27.69 10.28-32.845 20.35-65.76 30.98-98.49 4.56-14.056 8.95-28.165 11.4-42.671 2.38-14.092 4.24-28.35-0.73-42.618-4.43-12.673-12.65-22.376-22-31.329-14.6-13.977-28.92-28.174-39.85-45.341-6.5-10.214-11.95-20.886-11.78-33.524 0.05-3.895 1.3-7.499 2.21-11.165 2.65-10.655-0.34-20.49-3.75-30.378-7.95-23.027-21.06-42.979-36.21-61.776-9.96-12.356-21.05-23.68-32.02-35.075-23.66-24.552-50.14-45.817-79.38-63.239-19.882-11.853-40.064-23.354-61.603-32.237-19.866-8.196-39.573-16.753-59.597-24.57-14.254-5.57-27.494-13.483-41.061-20.604-14.351-7.535-26.825-18.357-42.559-23.53-14.597-4.794-29.247-7.631-44.761-6.486-9.241 0.688-18.165 2.353-27.186 4.186-4.863 0.987-10.307 1.066-15.399-0.784-7.057-2.565-8.916-7.359-4.757-13.334 5.691-8.169 14.051-12.293 23.415-14.338 15.276-3.331 30.851-2.547 46.294-2.044 10.184 0.334 20.262 2.82 29.768 6.389 18.068 6.777 34.41 3.252 50.091-6.548 10.263-6.4157 20.799-12.338 31.978-16.964 6.59-2.7231 13.752-3.0051 20.729-2.6349 20.861 1.0927 40.911 6.1159 60.751 12.532 9.664 3.1289 19.372 6.7589 29.757 7.0679 12.05 0.361 23.22-3.349 34.05-8.0372 12.54-5.4286 24.48-12.126 36.22-19.115 19.35-11.518 40.42-18.366 62.31-22.834 12.18-2.4851 24.42-4.8205 36.74-6.3186 13.51-1.648 27.2-3.0844 39.82-7.8433 22.21-8.3808 39.69-31.761 28.16-56.666-6.6-14.268-18.66-23.072-33.38-28.306-17.1-6.0807-34.34-6.4333-52.23-3.4458-13.08 2.1856-26.51 2.1768-39.9 0.4671-6.79-0.8636-13.32-2.1855-19.66-4.5032-9.8-3.578-17.22-9.694-20.26-20.19-1.33-4.609-0.06-8.9448 1.08-13.316"/>
<path d="m788.89 565.72c15.963-12.989 29.3-28.553 43.193-43.605 11.919-12.91 24.79-24.931 40.955-32.483 11.329-5.297 23.645-6.953 35.556-3.516 10.157 2.925 17.443-3.446 16.729-13.07-0.74-10.037 0.053-20.057-3.709-29.875-3.691-9.658-9.338-17.59-17.249-23.838-16.324-12.893-35.652-19.89-54.778-27.24-24.384-9.376-48.875-18.542-70.282-34.07-11.611-8.416-22.217-17.951-30.243-29.892-4.977-7.403-7.867-15.651-5.99-24.975 2.308-11.457 11.822-14.338 20.825-17.476 9.761-3.401 20.253-3.349 30.305-5.446 11.206-2.335 22.262-5.032 32.542-10.513 6.801-3.622 8.563-6.346 5.727-15.528-2.802-9.077-8.722-16.427-14.88-23.416-15.355-17.413-35.335-27.31-56.892-34.721-16.588-5.693-33.599-9.642-50.575-13.88-19.205-4.803-38.295-10.214-54.831-21.785-5.417-3.79-10.166-8.372-13.337-14.339"/>
<path d="m513.13 593.42c0.027-8.029-0.105-16.031-1.559-23.971-1.145-6.248-3.374-12.205-6.616-17.449-2.766-4.477-7.329-7.455-13.108-8.169-13.03-1.604-26.006-3.552-38.348-8.434-14.148-5.587-26.517-13.827-37.837-23.944-16.324-14.585-33.335-28.403-49.36-43.305-15.54-14.453-31.917-28.509-41.008-48.391-5.982-13.078-8.299-26.896-7.717-41.507 0.978-24.491 10.219-46.099 21.548-67.047 7.144-13.219 14.527-26.377 24.42-37.842 11.39-13.201 24.746-23.38 41.449-29.469 18.288-6.663 36.18-14.453 53.826-22.746 17.24-8.108 34.533-16.127 51.615-24.552 12.342-6.081 24.42-12.69 34.137-22.807 3.497-3.64 4.871-7.984 5.294-12.814"/>
<path d="m843.73 909.23c4.828-8.715 11.497-16.312 15.435-25.565 3.418-8.037 5.902-16.312 6.959-25.028 1.181-9.747 1.876-19.458 1.084-29.302-1.762-21.829-8.563-41.446-24.006-57.512-15.611-16.241-34.164-28.024-54.822-36.775-27.283-11.553-55.368-20.181-84.642-25.09-18.121-3.04-36.489-4.679-54.328-9.456-21.777-5.833-43.123-12.751-62.803-24.014-7.48-4.274-13.867-9.853-18.597-17.061-5.947-9.051-0.097-18.04 9.003-18.754 12.95-1.013 25.926-1.463 38.876-1.859 16.492-0.502 31.618-3.358 45.44-13.721 12.73-9.545 27.864-15.29 42.946-20.437 18.906-6.451 37.961-12.479 56.945-18.692"/>
<path d="m1269.6 503.42c-10.94-15.255-20.07-31.611-29.34-47.897-8.32-14.647-15.94-29.663-23.34-44.777-10.06-20.534-19.53-41.367-29.94-61.715-13.01-25.407-28.09-49.492-47.23-70.924-24.77-27.752-53.38-50.594-85.17-69.832-25.19-15.255-51.43-28.253-78.904-38.626-14.413-5.437-28.552-11.307-41.995-18.797-6.352-3.543-12.272-7.738-17.003-13.325-2.264-2.679-5.145-5.499-2.678-9.535 2.52-4.142 7.391-6.354 11.646-4.698 3.445 1.349 6.977 2.618 10.184 4.645 15.628 9.888 32.965 14.735 51.069 17.713 17.121 2.82 34.091 2.38 51.121-0.106 14.02-2.044 27.33-6.442 39.89-12.848 9.45-4.83 19.46-7.024 29.84-8.54 10.18-1.489 20.21-0.855 30.36 9e-3 16.4 1.401 31.99-2.644 47.4-7.843 9.43-3.182 17.87-8.267 26.61-12.814 4.31-2.238 8.73-4.3182 13.83-3.7542 9.4 1.0482 12.6 7.2532 9.99 14.867-2.85 8.337-8.57 14.867-15.89 19.696-9.25 6.107-16.14 13.651-19.83 24.499-4.18 12.32-1.62 23.019 5.53 33.039 8.76 12.276 22.12 18.789 34.68 25.927 10.53 5.984 21.83 10.69 33.91 13.192 1.78 0.371 3.59 0.529 5.37 0.846"/>
<path d="m1130.7 896.98c-3.98-11.025-12.23-17.828-22.35-22.922-19.46-9.8-37.42-21.468-50.08-39.904-15.57-22.675-22.14-46.971-13.78-74.035 2.21-7.165 3.72-14.506 4.59-21.864 0.97-8.108-1.12-16.048-4.68-23.389-3.05-6.283-5.08-12.867-4.61-19.723 0.77-11.562 7.98-18.348 18.52-21.811 12.09-3.975 24.4-3.393 36.72-1.111 4.55 0.846 8.16 1.146 11.92-3.551 9.94-12.391 21.19-5.667 25.25 5.191 4.35 11.632 7.97 23.538 8.09 36.176 0.06 6.97-0.53 13.959-1.76 20.745-1.89 10.328-2.42 20.463 1.31 30.35 2.42 6.416 7.32 10.532 14.82 4.301 8.19-6.812 10.96-16.462 13.85-26.094 5.21-17.388 10.06-34.854 13.29-52.726 2.69-14.815 4.75-29.682 6.04-44.716 1.57-18.225 0.86-36.335-1.43-54.312-2.26-17.731-6.44-35.11-13.56-51.722-6.18-14.417-13.08-28.341-22.46-40.97"/>
<path d="m238.95 913.49c-7.682-20.93-15.998-41.614-23.02-62.799-7.955-23.98-14.985-48.223-19.24-73.057-2.123-12.391-0.572-25.328 4.986-37.225 5.295-11.315 2.027-18.7-6.906-26.103-5.77-4.777-12.263-8.399-18.623-12.276-13.867-8.451-24.606-20.014-33.635-33.462-10.299-15.351-22.341-29.39-33.934-43.772-11.277-13.968-22.262-28.333-27.601-45.8-3.1802-10.39-4.4664-21.309-6.9419-31.937-6.8538-29.32-20.042-55.044-40.471-77.296-10.774-11.729-21.152-23.944-29.362-37.727-9.479-15.924-7.6731-27.345 4.951-42.97 8.2545-10.214 18.897-18.348 28.499-27.381 10.51-9.888 20.086-20.595 26.182-33.999 7.215-15.872 6.6336-30.827-3.6999-45.324-9.1707-12.858-20.773-23.371-32.71-33.294-10.986-9.139-22.315-18.04-34.428-25.777-1.7443-1.119-3.1273-2.829-5.3297-3.19"/>
<path d="m437 911.89c-1.718-24.984-3.524-49.915-11.109-74.044-3.709-11.792-11.655-17.819-23.487-19.732-5.664-0.916-11.443-0.59-17.055-2.044-10.668-2.785-16.28-12.338-12.818-21.891 0.802-2.194 1.983-3.754 3.7-5.393 10.026-9.536 22.033-16.321 33.115-24.376 12.307-8.945 16.228-21.538 14.73-35.709-2.449-23.169-14.589-41.393-31.23-57.027-8.325-7.817-18.218-13.607-26.675-21.247-15.611-14.109-31.045-43.561-36.736-54.339-7.232-13.704-13.276-17.907-24.032-23.195-12.536-6.169-24.764-10.866-37.15-16.277-14.553-6.363-28.375-14.232-42.629-21.221-11.875-5.825-20.412-14.946-27.169-26.103-12.641-20.868-30.428-37.154-47.783-53.907-14.174-13.677-27.979-27.91-36.251-46.249-8.378-18.559-5.726-36.502 3.022-54.365 5.365-10.945 14.5-18.542 21.962-27.628 8.686-10.575 17.302-21.15 23.469-33.532 5.462-10.954 5.761-22.446 4.149-34.105-2.96-21.38-12.43-40.609-20.764-60.164-3.753-8.804-7.647-17.52-10.765-26.597-0.599-1.745-1.366-3.701-1.798-5.428-1.946-7.808 0.644-11.571 8.343-14.391 8.122-2.979 16.721-3.393 25.054-5.226 7.762-1.71 14.034-7.544 14.369-17.088 0.467-13.263-1.85-26.235-5.427-38.846-11.153-39.34-24.015-78.133-37.714-116.65-0.211-0.5905-1.189-0.7403-1.048-1.604"/>
<path d="m164.42 915.2c3.603 0.017 5.612-1.402 6.325-4.389 2.308-9.72 4.581-19.467 6.396-29.285 2.299-12.47 3.33-25.054 3.48-37.797 0.105-8.901-1.859-17.097-5.127-24.984-5.709-13.801-14.157-25.962-23.795-37.366-5.797-6.856-11.813-13.58-14.13-22.798-0.564-2.23-0.943-4.389-0.749-6.442 2.396-25.407-8.959-45.659-24.077-64.421-11.522-14.303-24.578-27.293-36.216-41.534-10.316-12.62-20.024-25.565-24.394-41.587-3.145-11.536-5.6117-23.204-7.0741-35.127-2.3081-18.903-12.721-31.928-30.225-39.463-8.0783-3.481-16.571-5.367-25.054-7.368-0.6343-0.149-1.4094 0.309-2.123 0.494"/>
<path d="m1128 457.09c-1.3-6.892-3.53-13.598-3.26-20.772 0.13-3.736 0.73-7.623 2.41-10.531 3.31-5.728 3.77-11.818 2.82-17.669-3-18.419-9.65-35.718-20.2-51.061-11.81-17.149-25.54-32.739-41.35-46.469-23.65-20.56-48.69-37.551-84.153-60.138-35.467-22.586-51.588-29.337-74.564-40.934-18.359-9.262-36.665-18.595-54.83-28.245-14.492-7.702-27.468-17.731-41.449-26.226-13.073-7.949-26.781-14.515-41.625-17.802-10.554-2.335-21.504-1.295-31.882 2.45-9.981 3.604-20.147 3.851-30.339 1.524-10.22-2.335-24.368-15.254-23.469-27.107 0.529-6.953 4.255-11.897 9.039-16.55 9.426-9.1652 21.345-13.122 33.608-15.81 23.865-5.2435 47.906-6.8738 71.833-0.0881 8.492 2.4059 16.703 5.8076 25.556 6.9268 4.995 0.6257 9.946 0.7755 14.906-0.0353"/>
<path d="m-6.4594 851.6c10.263 0.996 20.57 2.573 30.877 0.149 1.0043-0.237 2.1231-0.017 3.1891-0.035 17.963-0.343 35.916-0.097 53.764 2.186 10.827 1.383 21.548 3.648 32.48 4.177 9.03 0.432 18.994-4.239 20.72-18.084 0.714-5.737-1.726-10.566-5.849-14.338-8.836-8.099-17.584-16.259-27.6-23.01-12.818-8.627-20.069-20.736-23.134-36.105-3.4974-17.52-7.4176-35.066-15.76-51.175-5.8759-11.342-14.042-21.168-20.852-31.902-12.06-19.018-20.623-39.269-22.729-61.83-0.9074-9.711-0.7575-19.52-1.1628-29.284-0.7664-18.295-12.096-31.796-29.803-33.55"/>
<path d="m148.98 705.26c-10.836-14.928-23.812-27.927-36.666-41.067-12.853-13.139-25.679-26.314-34.277-42.997-4.2286-8.196-5.3474-16.973-7.2767-25.645-3.6824-16.479-8.7655-32.333-18.615-46.363-4.1669-5.94-9.435-10.796-14.421-15.951-14.624-15.114-29.997-29.558-41.563-47.368-2.7398-4.212-4.8188-8.804-7.8053-12.911-1.3566-1.859-1.2597-4.767-1.2508-7.349"/>
<path d="m900.16 100.8c6.572-5.0941 13.857-3.7722 21.301-2.7411 13.514 1.8771 24.535 9.2801 35.555 16.206 15.963 10.029 33.001 15.652 51.74 15.176 17.21-0.432 33.37-5.491 48.42-13.783 8.43-4.636 16.7-9.5 24.03-15.89 8.17-7.1206 18.56-9.4559 28.73-11.668 20.49-4.4592 41.4-5.8252 62.25-7.6494 27.48-2.4147 54.38-7.7023 79.31-20.199 11.45-5.737 21.94-13.016 30.91-22.305m-897.59 874.48c-0.396-11.491-2.272-22.78-4.096-34.113-1.013-6.293-2.537-12.417-3.859-18.621-1.013-4.768-3.946-6.548-8.554-6.398-9.576 0.317-18.861 2.52-28.217 4.256-3.356 0.626-6.73 1.181-10.113 1.586-5.004 0.6-8.765-1.639-11.135-5.86-4.546-8.108-6.872-17.017-8.51-26.077-0.987-5.455-1.753-10.98-2.114-16.506-0.52-7.975 0.581-16.013 3.321-23.353 3.982-10.664 13.003-15.899 23.741-18.78 11.788-3.164 23.804-5.235 35.688-7.923 10.457-2.362 20.773-4.97 30.375-10.064 13.778-7.306 16.227-21.282 5.876-33.118-10.897-12.452-24.42-21.379-38.401-29.751-13.584-8.135-27.309-16.004-40.973-23.997m656.42 243.92c-3.744-25.618-7.171-51.281-12.245-76.687-6.942-34.758-15.884-68.977-26.34-102.87-4.44-14.382-7.929-29.302-8.317-44.645-0.185-7.42 2.396-13.606 6.977-19.176 10.871-13.21 25.328-20.181 41.502-24.579 14.986-4.071 29.616-9.526 40.386-21.317 13.93-15.273 19.08-33.665 17.23-54.242-0.57-6.293-2.07-12.391-2.76-18.63m149.06-128.35c-3.09-13.096-6.66-26.041-12.25-38.344-8.48-18.692-19.62-35.709-32.47-51.66-18.64-23.133-38.86-44.83-60.21-65.443-13.52-13.051-29.29-23.194-45.19-33.082-25.87-16.083-52.924-29.681-81.423-40.574-21.09-8.063-42.118-16.277-63.402-23.847-9.734-3.454-19.53-6.715-29.265-10.152-5.277-1.86-9.629-5.129-12.192-10.135-3.022-5.904-0.106-12.928 6.871-17.528 1.189-0.784 2.476-1.428 3.718-2.141m-655.35 558.66c-8.8-4.354-13.663-12.294-18.693-20.199-3.189-5.014-5.832-10.258-6.766-16.03-2-12.32-9.743-20.031-19.795-26.068-11.444-6.874-23.31-13.034-33.573-21.802-15.117-12.92-25.028-28.174-28.473-48.461-5.4879-32.325-16.112-63.117-33.766-91.123-6.845-10.849-13.267-21.9-17.601-34.07-6.5631-18.41-4.2022-35.806 5.9376-52.171 9.4878-15.325 19.857-30.104 28.666-45.852 5.6293-10.073 11.496-20.058 14.465-31.391 0.7047-2.705 0.2202-5.349 0.4757-8.002m199.62 352.56c-12.052-13.413-19.901-29.276-26.623-45.8-2.325-5.71-5.083-11.165-9.021-16.004-5.699-7.006-13.364-10.416-21.865-12.188-14.122-2.934-26.349-9.438-37.854-18.057-24.517-18.365-45.836-39.895-63.649-64.649-11.77-16.365-23.804-32.642-34.181-49.977-7.0742-11.809-13.699-24.032-15.875-37.798-1.5857-10.046 0.8633-19.722 6.7922-28.182 10.757-15.37 21.795-30.545 31.908-46.355 7.735-12.1 14.448-24.658 17.619-38.864 1.824-8.169 0.961-16.33 0.494-24.508m233.71 357.35c-7.207-10.919-14.721-21.697-23.548-31.312-11.849-12.91-25.671-23.565-41.405-31.531-16.791-8.496-33.917-16.286-50.1-26.007-18.068-10.848-34.718-23.424-49.994-37.903-21.011-19.908-41.132-40.635-59.068-63.398-7.188-9.13-14.148-18.366-18.711-29.249-6.546-15.617-3.41-29.232 8.105-40.979 11.972-12.224 23.318-24.861 32.48-39.419 9.391-14.929 15.399-31.1 16.703-48.523 0.74-9.888-0.581-20.119-5.585-29.276m247.02-123.54c2.449-19.274-1.753-36.758-13.831-52.198-9.541-12.197-22.826-17.749-37.273-21.3-13.99-3.4369-28.34-4.8205-42.585-4.5033-12.994 0.2909-26.2 1.7273-37.335 10.284-7.092 5.455-14.474 2.1062-21.795-0.3877-7.127-2.4323-13.848-6.7593-21.795-5.8781-7.303 0.8108-14.8 1.2602-21.777 3.3312-10.448 3.102-17.725-2.5557-21.336-8.7245-2.538-4.3359-0.696-13.29 3.717-18.092 7.048-7.6582 16.06-12.461 25.592-15.845 13.681-4.847 28.058-6.3979 42.541-7.103 30.243-1.4717 60.328 2.6526 90.5 2.4939 18.254-0.09694 36.63-0.20268 54.346-6.6007 19.575-7.0677 31.248-20.965 37.775-40.062 1.789-5.2347 2.996-10.61 4.238-15.986m757.58 445.78c-8.24-11.298-14.65-23.733-21.81-35.691-16.61-27.734-32.31-56.014-50.05-83.077-14.07-21.468-30.62-40.53-52.18-54.85-16-10.62-33.05-18.401-52.12-22.111-7.61-1.481-15.57-3.86-21.9-9.289-5.57-4.768-5.01-9.65 1.61-12.805 3.89-1.85 8.12-2.635 12.25-3.075 13.26-1.41 26.52-2.864 39.92-2.292 15.64 0.67 30.98 2.697 45.78 8.029 5.77 2.071 10.38-0.943 14.87-3.79 1.85-1.181 3.3-3.067 4.81-4.741 3.05-3.366 7.12-4.776 11.15-3.543 4.68 1.437 7.04 6.011 7.36 10.487 1.04 14.409 5.03 27.822 11.86 40.468m109.14 199.71c-15.87-14.242-29.41-30.633-43.13-46.857-8.81-10.417-17.27-21.062-23.98-33.012-3.95-7.033-6.47-14.674-10.01-21.891-9.23-18.806-20.28-36.299-34.66-51.642-13.56-14.462-27.2-28.897-37.74-45.835-2.05-3.278-3.88-6.874-3.31-11.139 0.45-3.499 2.7-5.446 5.87-4.195 4.47 1.763 7.98 4.882 11.23 8.434 11.11 12.126 21.11 25.283 33.99 35.77 8.28 6.742 16.97 12.876 25.5 19.256 18.74 14.039 39.72 23.459 61.33 31.805l14.91 119.31z"/>
<path d="m627.05 113.05c-5.515-13.941-10.272-28.192-11.514-43.155-0.74-8.8832 3.585-16.682 9.391-23.415 12.368-14.329 28.64-21.054 46.849-23.962 9.224-1.4718 18.526-2.494 27.671-4.3447 17.557-3.5603 25.556-17.105 23.354-35.594-1.005-8.4602-2.934-16.815-5.242-25.037"/>
<path d="m882.06 78.435c12.017-3.5251 23.945-7.5965 36.736-6.9003 12.615 0.6874 25.187 1.9035 37.793 2.7495 26.332 1.7802 52.121 0.1234 77.801-6.821 25.9-7.0061 51.3-15.387 76.58-24.252 9.87-3.4634 19.27-7.8786 26.72-15.836 7.89-8.4426 6.78-22.058-3.13-29.029-7.49-5.27-15.57-8.1341-24.1-10.452-20.91-5.6754-39.15-15.598-52.71-33.021-8.18-10.514-11.57-22.455-10.65-35.682"/>
<path d="m128.75 224.88c-12.139-15.484-24.332-30.924-35.15-47.395-6.1315-9.323-12.228-18.647-17.055-28.755-4.4929-9.421-4.9157-18.243 1.4712-27.284 3.0217-4.275 6.5103-6.205 11.329-6.839 9.435-1.234 19.046-1.146 28.226-4.204 9.849-3.287 18.588-8.231 24.966-16.576 4.625-6.0543 6.484-13.201 6.968-20.736 1.216-18.947-5.4-35.735-13.742-52.242-7.004-13.862-16.439-25.812-26.737-37.216-0.723-0.8019-1.357-1.6038-1.586-2.679"/>
<path d="m586.06 911.36c0.651-12.69 2.07-25.266 4.043-37.85 1.542-9.862 0.062-19.891-4.043-29.258-6.881-15.722-16.985-29.276-27.548-42.715-17.795-22.623-37.625-43.808-51.685-69.18-8.81-15.889-17.408-31.972-24.949-48.487-9.902-21.697-19.83-43.341-32.128-63.813-0.3-0.493-0.679-0.731-0.502-1.084"/>
<path d="m-7.0143 860.37c19.337 1.622 38.718 0.15 58.037 1.084 14.685 0.705 29.512 1.445 43.66 6.248 12.095 4.107 21.75 11.571 29.274 21.829 5.127 6.997 8.483 7.852 15.399 2.591 9.188-6.997 15.619-16.436 20.676-26.623 2.572-5.191 1.154-10.963-0.379-16.444-3.727-13.325-11.435-24.403-19.751-35.119-4.792-6.178-10.008-12.012-14.853-18.154-8.598-10.901-11.602-23.785-12.8-37.26"/>
<path d="m174 203.58c-0.599-2.926-0.617-6.584 1.083-9.571 3.956-6.962 9.171-9.015 17.003-6.363 11.056 3.737 21.724 8.575 33.009 11.703 5.418 1.507 10.783 2.75 16.509 2.732 8.396-0.026 12.615-3.498 15.285-10.275 1.462-3.719-1.648-12.408-6.704-15.484-4.423-2.697-9.101-4.565-13.902-6.301-13.945-5.041-23.116-15.704-29.01-28.342-7.823-16.788-10.615-35.153-10.21-53.66 0.247-11.368-3.286-20.93-9.752-29.831-6.528-8.9889-12.369-18.41-17.575-28.218-5.788-10.919-6.695-22.137-3.321-34.114 3.03-10.778 5.796-21.705 6.51-32.986"/>
<path d="m654.74 905.5c3.153-9.121 9.505-16.26 14.949-23.936 7.929-11.165 14.924-22.754 18.025-36.255 3.356-14.629 1.885-28.905-4.247-42.583-8.994-20.057-24.561-33.946-42.479-45.94-13.752-9.209-29.098-14.946-43.695-22.331-14.193-7.174-26.614-17.044-38.947-27.029-10.537-8.522-19.584-18.33-26.508-29.919-8.995-15.061-15.496-31.064-16.042-48.954"/>
<path d="m477.55 908.7c0.81-22.006 1.33-44.02 0.881-66.042-0.194-9.527-1.401-18.974-4.044-28.263-1.736-6.125-6.22-9.667-10.237-13.818-5.153-5.332-11.144-9.853-14.985-16.462-3.013-5.191-4.607-10.672-4.686-16.55-0.141-11.536 0.819-23.16-0.247-34.599-1.63-17.546-8.043-33.787-16.861-48.998-7.198-12.417-15.355-24.2-23.962-35.674-0.503-0.661-0.969-1.639-2.097-1.621m-160.76 53.255c6.537 2.89 13.426 5.067 19.178 9.57 3.903 3.049 6.845 6.804 9.03 11.201 1.868 3.745 1.639 7.068-1.568 10.143-5.823 5.588-13.029 9.051-19.742 13.263-5.506 3.455-10.572 7.421-15.461 11.704-9.329 8.187-11.029 18.286-8.527 29.875 4.237 19.573 11.848 37.947 19.169 56.454 9.285 23.468 21.592 45.473 32.516 68.148 1.286 2.67 3.092 4.045 6.396 3.798"/>
<path d="m1311.8 808.04c0-2.855-1.09-4.371-3.25-5.895-14.02-9.95-26.36-21.741-35.58-36.247-10.34-16.268-16.65-34.175-15.94-53.713 0.46-12.355 4.37-24.173 10.06-35.101 7.87-15.113 10.3-31.408 11.58-47.985 2.22-28.852-3.99-56.013-15.16-82.645-10.07-24.023-24.95-44.751-40.23-65.363-6.97-9.412-14.05-18.807-22.29-27.205"/>
<path d="m-10.732 839.46c12.43 1.534 24.746 3.781 37.247 4.971 15.249 1.454 30.463 3.049 45.801 3.04 5.18 0 10.334-0.097 15.443-1.075 8.3338-1.604 10.148-7.059 7.8669-13.818-2.5724-7.623-8.6246-12.77-14.782-17.617-10.818-8.513-21.478-17.132-29.336-28.72-3.9731-5.861-6.9507-12.144-9.5231-18.674"/>
<path d="m837.87 1.2096c7.611-12.514 14.5-13.616 26.569-8.936 10.281 3.9745 20.298 8.3808 31.45 9.5176 18.324 1.8771 35.212-2.5204 51.087-11.28 8.36-4.6179 16.201-9.9936 22.42-17.502 9.585-11.58 15.161-24.984 18.588-39.437 0.167-0.7314-0.158-1.6568 1.084-1.5951"/>
<path d="m197.43 913.49c1.877-13.607 2.969-27.319 2.018-40.997-1.41-20.392-2.397-40.961-10.581-60.173-3.673-8.618-7.902-16.999-11.637-25.592-4.942-11.368-7.171-23.415-8.589-35.664-0.494-4.283-1.383-8.522-2.097-12.788"/>
<path d="m-10.732 832.54c16.412 2.696 32.886 5.243 49.518 5.675 7.5762 0.194 15.346 0.247 22.887-1.437 6.9595-1.551 10.334-8.821 7.444-15.95-2.1407-5.288-6.0521-8.928-10.58-12.329-13.567-10.214-28.719-17.353-44.233-23.909-7.682-3.252-15.302-6.663-22.87-10.17-0.97786-0.449-1.8059-0.282-2.6957-0.458"/>
<path d="m28.664 734.02c-9.4703-17.202-18.852-34.519-23.301-53.819-2.6164-11.351-1.9557-22.939-0.87213-34.607 1.1717-12.646 4.8276-24.914 4.669-37.798-0.12334-9.764-4.3695-17.431-10.633-23.635-2.405-2.38-6.7304-4.715-10.853-5.649"/>
<path d="m-13.392 51.266c1.3479-0.749 2.8279-0.564 4.2551-0.5199 17.372 0.4847 34.516-1.93 51.633-4.3359 10.527-1.4717 11.937-10.161 10.748-16.991-1.5857-9.0947-6.8802-16.277-11.276-23.944-4.5017-7.8609-9.849-15.264-12.774-23.97"/>
<path d="m547.73 126.9c-2.176-10.655-0.59-21.309 0.062-31.946 0.299-4.8206 1.814-9.4912 2.123-14.382 0.89-13.95-2.74-27.584-2.388-41.552 0.326-12.822 0.749-25.874 18.263-34.678 12.835-6.4509 26.331-11.659 38.339-19.679 7.144-4.7676 14.447-9.4296 19.724-16.471"/>
<path d="m81.9 255.77c-12.501-13.659-26.226-25.962-40.356-37.938-16.756-14.197-34.524-26.976-52.258-39.851-0.555-0.405-1.0219-0.529-1.621-0.502"/>
<path d="m73.919 68.847c8.1312-7.3145 7.4617-16.876 5.7086-26.068-3.4181-17.925-11.444-34.184-20.174-50.038-2.22-4.0274-3.3741-8.8216-7.3648-11.765"/>
<path d="m1272.3 257.9c-16.72-6.416-33.24-13.281-48.44-22.913-2.99-1.903-6.03-3.789-8.53-6.371"/>
<path d="m40.372 76.831c-1.709-0.855-3.5414-0.52-5.321-0.52-16.148-0.0265-32.296-0.0177-48.443-0.0177"/>
<path d="m1281.9 443.24c-6.73-8.997-14.6-17.052-21.36-26.041-1.95-2.591-3.45-5.393-5.25-8.037"/>
<path d="m26.532 4.4087c-4.7396-7.5701-12.008-12.867-17.602-19.679-1.7971-2.1943-4.0963-4.0009-4.757-6.9532"/>
<path d="m522.46 429.09s-19.161-68.871 0.22-107.25 57.05-39.357 61.622-39.357c4.573 0 21.17 5.173 25.143 21.079 3.973 15.907 10.237 16.339 17.857 20.314 7.62 3.974 24.614 13.721 28.04 28.473 3.427 14.753-6.149 36.361-18.447 48.84s-27.318 25.063-26.34 38.018 33.538 39.137 29.935 52.973-29.918 16.021-48.056 14.981c-18.139-1.039-36.903 25.654-46.488 17.978s2.572-37.612-7.885-57.758-15.601-38.291-15.601-38.291z"/>
<path d="m427.58 588.76c-74.969-78.75-214.94-133.59-209.47-178.81 6.625-54.78 34.675-63.205 54.355-104.89 19.68-41.684 11.109-55.335 31.424-64.157 50.549-21.961 92.403-12.567 121.6-87.272"/>
<path d="m99.008 721.59c-13.294-26.623-64.001-75.851-64.001-104.17s-2.8455-59.45-44.867-77.128"/>
<path d="m679.12 514.04c-9.417 4.054-19.847 5.649-33.211 5.649-13.365 0-23.628 0.308-35.723 3.904-12.096 3.596-25.68 7.517-37.123 18.639-11.444 11.121-20.641 22.084-31.151 19.952-10.51-2.124-14.659-13.061-21.469-20.252-6.809-7.191-14.157-3.966-14.157-11.597 0-7.632 22.614-6.663 22.614-26.588 0-19.926-20.358-47.157-42.664-79.605-22.306-32.457-25.01-38.203-25.891-64.139-0.881-25.935 12.421-46.857 26.138-64.385"/>
<path d="m513.28 264.31 29.01-26.949s23.283-19.476 51.606-19.476 31.133 8.169 46.047 22.869c14.906 14.699 9.03 31.408 9.03 38.643s-0.229 18.181 18.623 32.246c18.853 14.065 41.687 41.701 41.687 41.701s32.56 37.877 25.495 50.065-27.856 15.88-35.802 15.88-42.312 1.613-46.153 21.759c-3.841 20.137 22.614 26.2 30.807 32.651s19.689 4.291 16.403 11.58"/>
<path d="m677.63 910.3c2.678-22.587 20.949-30.58 36.718-33.118 20.544-3.305 40.427 0.211 60.142 5.014 16.844 4.098 31.389 0.837 43.061-11.924 10.008-10.936 11.109-23.961 6.493-37.727-4.466-13.315-13.743-22.921-23.936-31.989-18.737-16.683-41.554-24.87-64.979-31.929-19.31-5.825-39.158-9.473-58.583-14.849-14.359-3.975-27.063-11.139-39.396-19.203-17.284-11.289-35.573-20.956-52.672-32.536-12.21-8.267-23.742-17.423-31.353-30.369-4.863-8.275-7.885-17.625-7.312-27.099 1.075-17.766 6.528-34.272 22.261-44.565 10.73-7.015 22.711-6.566 33.899-0.088 4.467 2.591 8.784 5.543 13.4 7.816 13.795 6.804 23.653 4.116 33.458-4.767 3.806-3.446 7.321-7.253 10.651-11.166 7.479-8.786 18.209-11.571 28.287-15.334 22.923-8.557 45.713-17.467 68.036-27.425 15.628-6.971 28.781-17.229 39.203-31.585 13.373-18.418 27.644-36.405 47.113-49.201 10.563-6.944 21.927-10.073 34.63-8.618 3.639 0.414 7.629 0.017 11.127-1.076 7.065-2.203 9.787-11.474 5.893-18.515-7.585-13.704-20.579-18.7-35.678-13.862-12.862 4.115-24.508 11.095-37.256 15.475-12.095 4.151-24.296 7.702-37.273 7.447-6.431-0.133-12.58-1.578-18.641-3.702-23.424-8.213-47.466-12.805-72.396-11.712-5.013 0.22-10.07 0.176-14.924 2.045-5.462 2.106-7.964 4.706-7.964 9.103 0 4.539 2.943 8.266 8.537 9.518 12.36 2.776 24.825 5.155 36.709 9.685 6.387 2.432 12.765 4.82 18.685 8.416 9.928 6.028 12.897 17.149 6.317 28.809-5.938 10.513-15.664 16.039-26.552 20.357-10.704 4.248-21.822 5.146-33.054 5.737-22.438 1.163-44.849 2.926-66.512 9.2-17.724 5.138-34.119 13.193-47.412 26.5-9.136 9.148-19.135 17.229-29.821 24.49-8.651 5.879-13.152 4.389-16.517-5.322-2.996-8.646-4.59-17.564-5.277-26.632-0.837-10.919-6.986-17.203-17.064-20.234-3.85-1.304-7.797-2.38-7.339-6.918 0.397-4.01 4.114-4.741 7.347-5.297 16.633-2.828 15.902-4.6 18.315-7.437 2.423-2.838 4.625-12.091-2.422-18.63-5.171-4.794-11.021-8.848-16.421-13.404-14.034-11.827-27.803-23.962-39.925-37.807-10.131-11.562-20.174-23.124-27.803-36.678-9.091-16.154-14.474-33.056-15.522-51.704-0.987-17.449 1.911-34.131 9.505-49.404 8.413-16.929 20.209-31.576 36.419-42.274 16.711-11.042 33.062-22.64 49.553-34.017 3.956-2.732 7.524-5.975 10.616-9.606 16.377-19.229 37.784-26.535 62.318-27.196 22.518-0.599 42.33 8.064 61.694 17.767 22.279 11.157 45.377 20.163 68.74 28.632 11.928 4.327 23.812 8.76 36.181 11.783 7.4 1.806 14.694 4.009 22.376 4.177 6.237 0.132 10.906-2.82 14.967-7.385 2.775-3.12 2.626-6.011 0.459-9.095-5.489-7.79-12.915-13.422-20.729-18.683-17.681-11.906-37.635-18.665-57.535-25.486-18.474-6.336-37.432-11.254-55.368-19.185-17.602-7.791-31.195-19.45-40.647-36.67-9.981-18.18-18.544-36.713-22.676-57.097-6.836-33.708 5.118-65.064 36.172-82.046 8.254-4.5121 17.645-5.7018 26.111-9.5441 6.678-3.0316 12.536-6.874 14.924-14.382 0.563-1.7625 0.502-3.5426 0.519-5.3316"/>
</g>
<defs>
<clipPath id="a">
<rect width="1280" height="800" fill="#fff"/>
</clipPath>
</defs>
</svg>
